<svg width="9" height="4" viewBox="0 0 9 4" fill="none" xmlns="http://www.w3.org/2000/svg">
<path d="M8.04164 0.792626L4.49547 3.89861C4.45325 3.93548 4.40752 3.96165 4.35826 3.97714C4.30901 3.99262 4.25624 4.00024 4.19995 3.99999C4.14366 3.99999 4.09089 3.99238 4.04164 3.97714C3.99239 3.9619 3.94665 3.93572 3.90444 3.89861L0.347708 0.792626C0.249204 0.706604 0.199951 0.599078 0.199951 0.470046C0.199951 0.341014 0.252722 0.230415 0.358263 0.138249C0.463803 0.0460835 0.586934 4.81452e-07 0.727656 4.8313e-07C0.868377 4.84808e-07 0.991508 0.0460835 1.09705 0.138249L4.19995 2.84792L7.30285 0.138249C7.40136 0.0522278 7.5228 0.00921711 7.66718 0.00921711C7.81156 0.00921711 7.93638 0.0553001 8.04164 0.147466C8.14718 0.239632 8.19995 0.347158 8.19995 0.470046C8.19995 0.592934 8.14718 0.70046 8.04164 0.792626Z" fill="white"/>
</svg>
