<svg width="31" height="20" viewBox="0 0 31 20" fill="none" xmlns="http://www.w3.org/2000/svg">
<path d="M29.2777 7.64307H29.273L25.2889 7.66761C24.8667 7.67078 24.5262 8.01533 24.5293 8.43671C24.5317 8.85809 24.8739 9.19708 25.2937 9.19708H25.2984L29.2833 9.17253C29.7055 9.16936 30.0452 8.82561 30.0429 8.40344C30.0405 7.98206 29.6983 7.64307 29.2777 7.64307Z" fill="white"/>
<path d="M25.2776 6.20628C25.4749 6.20628 25.6721 6.13024 25.8218 5.97896L27.7988 3.97742C28.0958 3.67644 28.0926 3.19248 27.7917 2.89626C27.4915 2.59844 27.0075 2.6024 26.7105 2.90259L24.7335 4.90334C24.4365 5.20432 24.4396 5.68826 24.7398 5.9853C24.8887 6.13262 25.0836 6.20628 25.2776 6.20628Z" fill="white"/>
<path d="M25.8654 10.8913C25.5652 10.5943 25.0804 10.5983 24.7842 10.8992C24.4872 11.1994 24.4903 11.6834 24.7913 11.9804L26.7802 13.9447C26.9291 14.092 27.1232 14.1649 27.3172 14.1649C27.5144 14.1649 27.7124 14.0889 27.8614 13.9376C28.1584 13.6374 28.1552 13.1534 27.855 12.8556L25.8654 10.8913Z" fill="white"/>
<path d="M21.9318 5.83165L21.9049 1.4951C21.9025 1.22818 21.7631 0.981855 21.535 0.844823C21.3061 0.706212 21.0233 0.697507 20.7881 0.821058L18.5481 1.98302C16.3058 3.14576 13.7839 3.76912 11.2556 3.78575L5.34207 3.82219C2.72351 3.8396 0.606328 5.98293 0.622159 8.60148C0.630078 9.87037 1.13146 11.0593 2.03441 11.9511C2.93657 12.8422 4.12625 13.3008 5.40147 13.3206L6.80184 13.3119L8.3424 17.8203C8.63863 18.686 9.4505 19.2658 10.3645 19.2658H10.3788L12.3922 19.2539C12.6449 19.2523 12.8809 19.1264 13.0219 18.9165C13.1629 18.7066 13.1914 18.4405 13.0979 18.2052L11.1328 13.2849L11.3776 13.2834C13.8433 13.2826 16.3517 13.8489 18.5735 14.9673L20.8839 16.1285C20.9924 16.1831 21.1097 16.21 21.2277 16.21C21.3679 16.21 21.5081 16.1712 21.6308 16.0952C21.8566 15.9542 21.9936 15.7063 21.992 15.4409L21.9651 11.1044C22.4055 10.9737 22.8134 10.7456 23.1453 10.4098C23.6625 9.88542 23.9453 9.19157 23.9405 8.45495C23.9326 7.2027 23.0803 6.15877 21.9318 5.83165ZM5.39196 11.7911C4.52783 11.807 3.72071 11.4672 3.10924 10.8628C2.49698 10.2585 2.15718 9.45215 2.15164 8.59199C2.14134 6.88588 3.47122 5.49027 5.15039 5.37383C4.7892 6.24114 4.46525 7.48388 4.71871 8.86287C4.91514 9.93452 5.42681 10.9111 6.23947 11.7856L5.39196 11.7911ZM11.2612 17.7308L10.3693 17.7363H10.3653C10.1047 17.7363 9.87425 17.5724 9.79029 17.326L8.41448 13.3016L9.4901 13.2952L11.2612 17.7308ZM19.2602 13.6002C16.8563 12.3915 14.1672 11.7539 11.475 11.7539H11.3681L10.024 11.7618H10.0224L8.57686 11.7713C7.24381 10.8589 6.44937 9.79354 6.22522 8.5999C5.96067 7.18924 6.54284 5.91164 6.86284 5.34215L11.2651 5.31523C14.0342 5.297 16.7961 4.61503 19.2523 3.34061L20.3834 2.7537L20.4063 6.48351V6.4851L20.4317 10.4684L20.4309 10.4692L20.4317 10.47L20.4546 14.2006L19.2602 13.6002ZM22.057 9.33494C22.0253 9.36661 21.9889 9.39196 21.954 9.42048L21.9421 7.51558C22.2233 7.73893 22.4086 8.07873 22.411 8.46446C22.4126 8.79238 22.2875 9.10127 22.057 9.33494Z" fill="white"/>
</svg>
