<svg width="16" height="16" viewBox="0 0 16 16" fill="none" xmlns="http://www.w3.org/2000/svg">
<rect width="16" height="16" rx="8" fill="black"/>
<path d="M4.696 5.412C4.744 4.668 5.028 4.088 5.548 3.672C6.076 3.256 6.748 3.048 7.564 3.048C8.124 3.048 8.608 3.148 9.016 3.348C9.424 3.548 9.732 3.82 9.94 4.164C10.148 4.508 10.252 4.896 10.252 5.328C10.252 5.824 10.12 6.248 9.856 6.6C9.592 6.952 9.276 7.188 8.908 7.308V7.356C9.38 7.5 9.748 7.764 10.012 8.148C10.276 8.524 10.408 9.008 10.408 9.6C10.408 10.072 10.3 10.492 10.084 10.86C9.868 11.228 9.548 11.52 9.124 11.736C8.7 11.944 8.192 12.048 7.6 12.048C6.736 12.048 6.024 11.828 5.464 11.388C4.912 10.94 4.616 10.3 4.576 9.468H5.896C5.928 9.892 6.092 10.24 6.388 10.512C6.684 10.776 7.084 10.908 7.588 10.908C8.076 10.908 8.452 10.776 8.716 10.512C8.98 10.24 9.112 9.892 9.112 9.468C9.112 8.908 8.932 8.512 8.572 8.28C8.22 8.04 7.676 7.92 6.94 7.92H6.628V6.792H6.952C7.6 6.784 8.092 6.676 8.428 6.468C8.772 6.26 8.944 5.932 8.944 5.484C8.944 5.1 8.82 4.796 8.572 4.572C8.324 4.34 7.972 4.224 7.516 4.224C7.068 4.224 6.72 4.34 6.472 4.572C6.224 4.796 6.076 5.076 6.028 5.412H4.696Z" fill="white"/>
</svg>
